<svg width="99" height="98" viewBox="0 0 99 98" fill="none" xmlns="http://www.w3.org/2000/svg">
<g filter="url(#filter0_ii_26_1375)">
<path d="M95.5 29.3542V12.5833C95.5 10.0417 94.5254 7.60412 92.7907 5.80689C91.056 4.00967 88.7033 3 86.25 3H12.25C9.79675 3 7.44397 4.00967 5.70926 5.80689C3.97455 7.60412 3 10.0417 3 12.5833V90.6204C3.00008 91.2932 3.19272 91.9509 3.55355 92.5103C3.91437 93.0697 4.4272 93.5057 5.02717 93.7631C5.62714 94.0206 6.28733 94.088 6.92426 93.9567C7.56119 93.8255 8.14626 93.5015 8.6055 93.0258L18.7898 82.4746C20.5241 80.6772 22.8764 79.6672 25.3295 79.6667H40" stroke="#080808" stroke-width="6" stroke-linecap="round" stroke-linejoin="round"/>
</g>
<g filter="url(#filter1_ii_26_1375)">
<path d="M86.25 60.5V50.9167C86.25 48.375 85.2754 45.9375 83.5407 44.1403C81.806 42.343 79.4533 41.3334 77 41.3334C74.5467 41.3334 72.194 42.343 70.4593 44.1403C68.7246 45.9375 67.75 48.375 67.75 50.9167V60.5" stroke="#080808" stroke-width="6" stroke-linecap="round" stroke-linejoin="round"/>
</g>
<g filter="url(#filter2_ii_26_1375)">
<path d="M90.875 60.5H63.125C60.5707 60.5 58.5 62.6453 58.5 65.2917V79.6667C58.5 82.313 60.5707 84.4583 63.125 84.4583H90.875C93.4293 84.4583 95.5 82.313 95.5 79.6667V65.2917C95.5 62.6453 93.4293 60.5 90.875 60.5Z" stroke="#080808" stroke-width="6" stroke-linecap="round" stroke-linejoin="round"/>
</g>
<defs>
<filter id="filter0_ii_26_1375" x="-9.5" y="-29.2" width="121.63" height="144.552" filterUnits="userSpaceOnUse" color-interpolation-filters="sRGB">
<feFlood flood-opacity="0" result="BackgroundImageFix"/>
<feBlend mode="normal" in="SourceGraphic" in2="BackgroundImageFix" result="shape"/>
<feColorMatrix in="SourceAlpha" type="matrix" values="0 0 0 0 0 0 0 0 0 0 0 0 0 0 0 0 0 0 127 0" result="hardAlpha"/>
<feOffset dx="-9.5" dy="18.33"/>
<feGaussianBlur stdDeviation="10.495"/>
<feComposite in2="hardAlpha" operator="arithmetic" k2="-1" k3="1"/>
<feColorMatrix type="matrix" values="0 0 0 0 1 0 0 0 0 1 0 0 0 0 1 0 0 0 1 0"/>
<feBlend mode="normal" in2="shape" result="effect1_innerShadow_26_1375"/>
<feColorMatrix in="SourceAlpha" type="matrix" values="0 0 0 0 0 0 0 0 0 0 0 0 0 0 0 0 0 0 127 0" result="hardAlpha"/>
<feOffset dx="13.63" dy="-29.2"/>
<feGaussianBlur stdDeviation="17.13"/>
<feComposite in2="hardAlpha" operator="arithmetic" k2="-1" k3="1"/>
<feColorMatrix type="matrix" values="0 0 0 0 0 0 0 0 0 0 0 0 0 0 0 0 0 0 0.38 0"/>
<feBlend mode="normal" in2="effect1_innerShadow_26_1375" result="effect2_innerShadow_26_1375"/>
</filter>
<filter id="filter1_ii_26_1375" x="55.25" y="9.13337" width="47.63" height="72.6966" filterUnits="userSpaceOnUse" color-interpolation-filters="sRGB">
<feFlood flood-opacity="0" result="BackgroundImageFix"/>
<feBlend mode="normal" in="SourceGraphic" in2="BackgroundImageFix" result="shape"/>
<feColorMatrix in="SourceAlpha" type="matrix" values="0 0 0 0 0 0 0 0 0 0 0 0 0 0 0 0 0 0 127 0" result="hardAlpha"/>
<feOffset dx="-9.5" dy="18.33"/>
<feGaussianBlur stdDeviation="10.495"/>
<feComposite in2="hardAlpha" operator="arithmetic" k2="-1" k3="1"/>
<feColorMatrix type="matrix" values="0 0 0 0 1 0 0 0 0 1 0 0 0 0 1 0 0 0 1 0"/>
<feBlend mode="normal" in2="shape" result="effect1_innerShadow_26_1375"/>
<feColorMatrix in="SourceAlpha" type="matrix" values="0 0 0 0 0 0 0 0 0 0 0 0 0 0 0 0 0 0 127 0" result="hardAlpha"/>
<feOffset dx="13.63" dy="-29.2"/>
<feGaussianBlur stdDeviation="17.13"/>
<feComposite in2="hardAlpha" operator="arithmetic" k2="-1" k3="1"/>
<feColorMatrix type="matrix" values="0 0 0 0 0 0 0 0 0 0 0 0 0 0 0 0 0 0 0.38 0"/>
<feBlend mode="normal" in2="effect1_innerShadow_26_1375" result="effect2_innerShadow_26_1375"/>
</filter>
<filter id="filter2_ii_26_1375" x="46" y="28.3" width="66.13" height="77.4884" filterUnits="userSpaceOnUse" color-interpolation-filters="sRGB">
<feFlood flood-opacity="0" result="BackgroundImageFix"/>
<feBlend mode="normal" in="SourceGraphic" in2="BackgroundImageFix" result="shape"/>
<feColorMatrix in="SourceAlpha" type="matrix" values="0 0 0 0 0 0 0 0 0 0 0 0 0 0 0 0 0 0 127 0" result="hardAlpha"/>
<feOffset dx="-9.5" dy="18.33"/>
<feGaussianBlur stdDeviation="10.495"/>
<feComposite in2="hardAlpha" operator="arithmetic" k2="-1" k3="1"/>
<feColorMatrix type="matrix" values="0 0 0 0 1 0 0 0 0 1 0 0 0 0 1 0 0 0 1 0"/>
<feBlend mode="normal" in2="shape" result="effect1_innerShadow_26_1375"/>
<feColorMatrix in="SourceAlpha" type="matrix" values="0 0 0 0 0 0 0 0 0 0 0 0 0 0 0 0 0 0 127 0" result="hardAlpha"/>
<feOffset dx="13.63" dy="-29.2"/>
<feGaussianBlur stdDeviation="17.13"/>
<feComposite in2="hardAlpha" operator="arithmetic" k2="-1" k3="1"/>
<feColorMatrix type="matrix" values="0 0 0 0 0 0 0 0 0 0 0 0 0 0 0 0 0 0 0.38 0"/>
<feBlend mode="normal" in2="effect1_innerShadow_26_1375" result="effect2_innerShadow_26_1375"/>
</filter>
</defs>
</svg>
