<svg width="148" height="148" viewBox="0 0 148 148" fill="none" xmlns="http://www.w3.org/2000/svg">
<g filter="url(#filter0_ii_13_302)">
<path d="M117.167 18.5H30.8333C24.0218 18.5 18.5 24.0218 18.5 30.8333V117.167C18.5 123.978 24.0218 129.5 30.8333 129.5H117.167C123.978 129.5 129.5 123.978 129.5 117.167V30.8333C129.5 24.0218 123.978 18.5 117.167 18.5Z" stroke="#080808" stroke-width="6" stroke-linecap="round" stroke-linejoin="round"/>
<path d="M55.5 67.8333C62.3115 67.8333 67.8333 62.3115 67.8333 55.5C67.8333 48.6884 62.3115 43.1666 55.5 43.1666C48.6884 43.1666 43.1666 48.6884 43.1666 55.5C43.1666 62.3115 48.6884 67.8333 55.5 67.8333Z" stroke="#080808" stroke-width="6" stroke-linecap="round" stroke-linejoin="round"/>
<path d="M129.5 92.5L110.47 73.4697C108.157 71.1575 105.02 69.8586 101.75 69.8586C98.4796 69.8586 95.3432 71.1575 93.0303 73.4697L37 129.5" stroke="#080808" stroke-width="6" stroke-linecap="round" stroke-linejoin="round"/>
</g>
<defs>
<filter id="filter0_ii_13_302" x="-9.5" y="-29.2" width="171.13" height="195.53" filterUnits="userSpaceOnUse" color-interpolation-filters="sRGB">
<feFlood flood-opacity="0" result="BackgroundImageFix"/>
<feBlend mode="normal" in="SourceGraphic" in2="BackgroundImageFix" result="shape"/>
<feColorMatrix in="SourceAlpha" type="matrix" values="0 0 0 0 0 0 0 0 0 0 0 0 0 0 0 0 0 0 127 0" result="hardAlpha"/>
<feOffset dx="-9.5" dy="18.33"/>
<feGaussianBlur stdDeviation="10.495"/>
<feComposite in2="hardAlpha" operator="arithmetic" k2="-1" k3="1"/>
<feColorMatrix type="matrix" values="0 0 0 0 1 0 0 0 0 1 0 0 0 0 1 0 0 0 1 0"/>
<feBlend mode="normal" in2="shape" result="effect1_innerShadow_13_302"/>
<feColorMatrix in="SourceAlpha" type="matrix" values="0 0 0 0 0 0 0 0 0 0 0 0 0 0 0 0 0 0 127 0" result="hardAlpha"/>
<feOffset dx="13.63" dy="-29.2"/>
<feGaussianBlur stdDeviation="17.13"/>
<feComposite in2="hardAlpha" operator="arithmetic" k2="-1" k3="1"/>
<feColorMatrix type="matrix" values="0 0 0 0 0 0 0 0 0 0 0 0 0 0 0 0 0 0 0.38 0"/>
<feBlend mode="normal" in2="effect1_innerShadow_13_302" result="effect2_innerShadow_13_302"/>
</filter>
</defs>
</svg>
