<svg width="109" height="48" viewBox="0 0 109 48" fill="none" xmlns="http://www.w3.org/2000/svg">
<path d="M12.2294 11.3958C12.3186 10.4667 12.7545 9.60386 13.4519 8.97591C14.1493 8.34796 15.0581 8 16.0008 8C16.9435 8 17.8523 8.34796 18.5497 8.97591C19.2471 9.60386 19.683 10.4667 19.7722 11.3958C19.8258 11.996 20.0247 12.5746 20.352 13.0826C20.6793 13.5906 21.1254 14.013 21.6525 14.3141C22.1797 14.6152 22.7723 14.7862 23.3804 14.8125C23.9884 14.8388 24.5938 14.7197 25.1455 14.4653C26.0021 14.0803 26.9728 14.0245 27.8686 14.309C28.7644 14.5935 29.5213 15.1977 29.9919 16.0042C30.4625 16.8107 30.6132 17.7617 30.4147 18.6722C30.2161 19.5826 29.6825 20.3873 28.9177 20.9297C28.4197 21.2757 28.0131 21.7353 27.7325 22.2697C27.4518 22.8042 27.3053 23.3977 27.3053 24C27.3053 24.6023 27.4518 25.1958 27.7325 25.7303C28.0131 26.2647 28.4197 26.7243 28.9177 27.0703C29.6825 27.6127 30.2161 28.4174 30.4147 29.3278C30.6132 30.2383 30.4625 31.1893 29.9919 31.9958C29.5213 32.8023 28.7644 33.4065 27.8686 33.691C26.9728 33.9755 26.0021 33.9197 25.1455 33.5347C24.5938 33.2803 23.9884 33.1612 23.3804 33.1875C22.7723 33.2138 22.1797 33.3847 21.6525 33.6859C21.1254 33.987 20.6793 34.4094 20.352 34.9174C20.0247 35.4254 19.8258 36.004 19.7722 36.6042C19.683 37.5333 19.2471 38.3961 18.5497 39.0241C17.8523 39.652 16.9435 40 16.0008 40C15.0581 40 14.1493 39.652 13.4519 39.0241C12.7545 38.3961 12.3186 37.5333 12.2294 36.6042C12.1759 36.0038 11.977 35.425 11.6496 34.9168C11.3222 34.4086 10.8759 33.9861 10.3486 33.6849C9.82122 33.3838 9.22832 33.2129 8.62009 33.1867C8.01187 33.1606 7.40623 33.2799 6.85449 33.5347C5.99788 33.9197 5.02721 33.9755 4.13139 33.691C3.23558 33.4065 2.47871 32.8023 2.0081 31.9958C1.53748 31.1893 1.38679 30.2383 1.58535 29.3278C1.78391 28.4174 2.31751 27.6127 3.08231 27.0703C3.58033 26.7243 3.98687 26.2647 4.26753 25.7303C4.54819 25.1958 4.69472 24.6023 4.69472 24C4.69472 23.3977 4.54819 22.8042 4.26753 22.2697C3.98687 21.7353 3.58033 21.2757 3.08231 20.9297C2.31858 20.387 1.78592 19.5826 1.58785 18.6728C1.38977 17.763 1.54042 16.8128 2.01053 16.0068C2.48064 15.2008 3.23661 14.5967 4.13154 14.3118C5.02647 14.0269 5.99641 14.0816 6.85287 14.4653C7.40454 14.7197 8.01001 14.8388 8.61802 14.8125C9.22604 14.7862 9.81869 14.6152 10.3458 14.3141C10.873 14.013 11.3191 13.5906 11.6464 13.0826C11.9737 12.5746 12.1726 11.996 12.2262 11.3958" stroke="#080808" stroke-width="3" stroke-linecap="round" stroke-linejoin="round"/>
<path d="M16 29C18.4853 29 20.5 26.7614 20.5 24C20.5 21.2386 18.4853 19 16 19C13.5147 19 11.5 21.2386 11.5 24C11.5 26.7614 13.5147 29 16 29Z" stroke="#080808" stroke-width="3" stroke-linecap="round" stroke-linejoin="round"/>
<path d="M96.5 12L72.5 36" stroke="#080808" stroke-width="4" stroke-linecap="round" stroke-linejoin="round"/>
<path d="M72.5 12L96.5 36" stroke="#080808" stroke-width="4" stroke-linecap="round" stroke-linejoin="round"/>
</svg>
